<?xml version="1.0" encoding="UTF-8"?>
<svg width="35px" height="38px" viewBox="0 0 35 38" version="1.1" xmlns="http://www.w3.org/2000/svg" xmlns:xlink="http://www.w3.org/1999/xlink">
    <!-- Generator: Sketch 52.6 (67491) - http://www.bohemiancoding.com/sketch -->
    <title>Group</title>
    <desc>Created with Sketch.</desc>
    <g id="Page-1" stroke="none" stroke-width="1" fill="none" fill-rule="evenodd" stroke-linecap="round" stroke-linejoin="round">
        <g id="iPhone-8-Copy-(3)" transform="translate(-36.000000, -99.000000)" stroke="#FFDE45">
            <g id="Group" transform="translate(37.000000, 100.000000)">
                <g transform="translate(1.454336, 0.000000)" id="Shape">
                    <path d="M11.9539937,13.1109409 L11.4832212,12.521751 C11.2881865,12.2823931 11.1873072,11.9816608 11.2343835,11.6870672 C11.261285,11.4783959 11.3621657,11.2635873 11.6110021,11.0978773 C12.4314902,10.5516498 13.1174736,11.09174 13.1174736,11.09174"></path>
                    <path d="M17.6167105,13.1109409 C17.6167105,12.22102 17.3207964,11.3310977 16.702067,10.5577871 C15.1552446,8.63064717 12.1893793,8.20716735 10.0776291,9.61876638 C8.80654455,10.4657261 8.13401339,11.7791269 8.13401339,13.1109409"></path>
                    <g stroke-width="1.5">
                        <polyline points="25.1894187 13.1109409 28.2359872 11.073328 25.4382536 7.58115348 22.452215 3.85575842 19.6477575 0.363583889 14.9064069 3.53047657 2.24935979 11.9816608 0.561305462 13.1109409"></polyline>
                        <path d="M22.9028086,13.1109409 C22.3177073,11.2819993 23.2861539,9.01730249 25.4382536,7.58115348"></path>
                        <path d="M14.9069145,3.52824147 C16.4553735,5.45863836 19.8322013,5.60627567 22.4492691,3.85799977"></path>
                    </g>
                </g>
                <g transform="translate(0.000000, 13.089020)" id="Shape" stroke-width="1.5">
                    <path d="M30.5189523,22.1786172 L2.20359833,22.1786172 C1.10837058,22.1786172 0.22051312,21.2907588 0.22051312,20.1955327 L0.22051312,2.00593885 C0.22051312,0.91071147 1.10837058,0.0228529926 2.20359833,0.0228529926 L30.5189531,0.0228529926 C31.6141791,0.0228529926 32.5020375,0.91071147 32.5020375,2.00593885 L32.5020375,20.1955327 C32.5020368,21.2907588 31.6141783,22.1786172 30.5189523,22.1786172 Z"></path>
                    <path d="M32.5020368,15.6257355 L26.6046613,15.6257355 C24.6391053,15.6257355 23.0457074,14.0323375 23.0457074,12.0667815 L23.0457074,12.066776 C23.0457074,10.1012199 24.6391053,8.50782199 26.6046613,8.50782199 L32.5020368,8.50782199 L32.5020368,15.6257355 Z"></path>
                </g>
            </g>
        </g>
    </g>
</svg>