<?xml version="1.0" encoding="UTF-8"?>
<svg width="37px" height="32px" viewBox="0 0 37 32" version="1.1" xmlns="http://www.w3.org/2000/svg" xmlns:xlink="http://www.w3.org/1999/xlink">
    <!-- Generator: Sketch 52.6 (67491) - http://www.bohemiancoding.com/sketch -->
    <title>Shape</title>
    <desc>Created with Sketch.</desc>
    <g id="Page-1" stroke="none" stroke-width="1" fill="none" fill-rule="evenodd">
        <g id="iPhone-8-Copy-(1)" transform="translate(-37.000000, -111.000000)" fill="#7ED321" fill-rule="nonzero">
            <g id="Ипотека" transform="translate(15.000000, 84.000000)">
                <path d="M24.4615448,27 C23.6665659,27 23.0025949,27.4808997 22.6025656,28.0897956 C22.2025364,28.6986874 22,29.4675017 22,30.2822074 L22,47.1035182 C22,47.9182485 22.2025332,48.674271 22.6025656,49.2831341 C23.0025981,49.8919972 23.666577,50.385742 24.4615448,50.385742 L39.2308134,50.385742 C39.660593,50.385742 40.0516311,49.9948077 40.0516311,49.5651861 C40.0516311,49.1355645 39.660593,48.7446301 39.2308134,48.7446301 L24.4615448,48.7446301 C24.3287358,48.7446301 24.1629024,48.6726299 23.974364,48.3856548 C23.7858257,48.0986797 23.6410298,47.6268426 23.6410298,47.1035182 L23.6410298,35.2055185 L56.4616268,35.2055185 L56.4616268,47.1035182 C56.4616268,47.6268426 56.316831,48.0986797 56.1282926,48.3856548 C55.9397543,48.6726299 55.7739204,48.7446301 55.6411119,48.7446301 L54.0000821,48.7446301 C53.5703025,48.7446301 53.1792644,49.1355645 53.1792644,49.5651861 C53.1792644,49.9948077 53.5703025,50.385742 54.0000821,50.385742 L55.6411119,50.385742 C56.4360797,50.385742 57.1000584,49.8919972 57.500091,49.2831341 C57.9001236,48.674271 58.1026567,47.9182485 58.1026567,47.1035182 L58.1026567,30.2822074 C58.1026567,29.4675017 57.9001204,28.6986874 57.500091,28.0897956 C57.1000617,27.4808997 56.4360908,27 55.6411119,27 L24.4615448,27 Z M24.4615448,28.6411037 L55.6411119,28.6411037 C55.7739094,28.6411037 55.939751,28.713108 56.1282926,29.0000954 C56.3168342,29.2870787 56.4616268,29.7589076 56.4616268,30.2822074 L56.4616268,33.5644148 L23.6410298,33.5644148 L23.6410298,30.2822074 C23.6410298,29.7589076 23.7858224,29.2870787 23.974364,29.0000954 C24.1629056,28.713108 24.3287469,28.6411037 24.4615448,28.6411037 Z M46.1154464,39.7057351 C45.7121609,39.7500347 45.3757982,40.1336132 45.3846753,40.5391116 L45.3846753,41.7955661 C44.5997728,41.8722433 43.8146184,42.0904182 43.1154388,42.5007577 C42.1681711,43.0566976 41.4077679,44.0595309 41.2821007,45.385483 C41.2812802,45.4068164 41.2812802,45.4282319 41.2821007,45.4496063 C41.2800084,46.8462047 42.0718168,47.9293255 43.0000538,48.6035836 C43.9282909,49.2779238 45.0103482,49.6461299 45.8846766,49.8600791 C45.8889515,49.8601202 45.8932223,49.8601202 45.8974972,49.8600791 C47.2356512,50.1632184 48.2981179,50.6080195 48.9616076,51.1550158 C49.6145972,51.6933146 49.9243645,52.270711 49.8975074,53.1807441 C49.8973634,53.1856671 49.8976707,53.1885389 49.8975074,53.193462 C49.815387,54.0209513 49.4548446,54.4436396 48.8718638,54.7832918 C48.2854385,55.1249542 47.4482577,55.3062059 46.6154477,55.3089546 C45.9078771,55.3130572 45.0501949,55.2324416 44.3718522,54.9243383 C43.6935096,54.6162349 43.1623989,54.1432491 42.8974895,53.0524565 C42.8134819,52.6159016 42.3239996,52.3037367 41.8925733,52.4115934 C41.4611473,52.51945 41.1762826,53.0252154 41.3077418,53.449914 C41.6797141,54.9815692 42.6509662,55.9385768 43.6923633,56.4115626 C44.2642093,56.6712966 44.8420824,56.805779 45.3846753,56.8731433 L45.3846753,58.1680799 C45.3785502,58.6014349 45.7716626,59 46.2051903,59 C46.6387179,59 47.0318295,58.6014349 47.0257052,58.1680799 L47.0257052,56.9115844 C47.9386191,56.8634612 48.8830343,56.6726504 49.7051992,56.1936338 C50.6515627,55.6422478 51.4833872,54.7752507 51.5385373,53.3345086 C51.5390706,53.3172777 51.5390706,53.3004572 51.5385373,53.2832264 C51.5955069,51.886833 50.9899919,50.6911787 50.0128923,49.8856382 C49.0385604,49.0823951 47.7436213,48.5924246 46.269293,48.2573263 C45.4435777,47.9847923 44.5863369,47.7126275 43.9615948,47.2701238 C43.3196698,46.8038662 42.9492406,46.2877623 42.9359511,45.5008064 C43.0244223,44.6943633 43.3745307,44.2480032 43.9487742,43.9109767 C44.5343203,43.567304 45.3676406,43.4020523 46.1923697,43.4109549 C47.0109696,43.4199806 47.8665348,43.4830371 48.5128885,43.7827712 C49.1592422,44.0825874 49.6539105,44.5458501 49.9231485,45.654653 C50.0071561,46.0912079 50.4966384,46.4033728 50.9280647,46.2955161 C51.3594907,46.1876595 51.6443554,45.6818941 51.5128962,45.2571955 C51.1453363,43.7434686 50.2301905,42.7709122 49.205198,42.2955059 C48.4762472,41.9574537 47.7195445,41.8389714 47.0257052,41.7954841 L47.0257052,40.5390296 C47.0359083,40.0736335 46.5783166,39.6546745 46.1154464,39.7056531 L46.1154464,39.7057351 Z M29.3846343,39.7185557 C27.8083,39.7185557 26.5128321,41.001841 26.5128321,42.577681 C26.5128321,44.1534799 27.8083,45.4496063 29.3846343,45.4496063 C30.2935048,45.4496063 31.1133916,45.0264257 31.6410504,44.3597984 C32.1687092,45.0264257 32.988596,45.4496063 33.8974664,45.4496063 C35.4738007,45.4496063 36.7692686,44.1534799 36.7692686,42.577681 C36.7692686,41.001841 35.4738007,39.7185557 33.8974664,39.7185557 C32.988596,39.7185557 32.1687092,40.1416952 31.6410504,40.8083636 C31.1133916,40.1416952 30.2935048,39.7185557 29.3846343,39.7185557 Z M29.3846343,41.3596676 C30.07409,41.3596676 30.6154067,41.8884074 30.6154067,42.577681 C30.6154067,43.2668725 30.07409,43.8084944 29.3846343,43.8084944 C28.6951786,43.8084944 28.1538619,43.2668725 28.1538619,42.577681 C28.1538619,41.8884074 28.6951786,41.3596676 29.3846343,41.3596676 Z M33.8974664,41.3596676 C34.5869221,41.3596676 35.1282388,41.8884074 35.1282388,42.577681 C35.1282388,43.2668725 34.5869221,43.8084944 33.8974664,43.8084944 C33.2080107,43.8084944 32.666694,43.2668725 32.666694,42.577681 C32.666694,41.8884074 33.2080107,41.3596676 33.8974664,41.3596676 Z" id="Shape"></path>
            </g>
        </g>
    </g>
</svg>