<?xml version="1.0" encoding="UTF-8"?>
<svg width="39px" height="28px" viewBox="0 0 39 28" version="1.1" xmlns="http://www.w3.org/2000/svg" xmlns:xlink="http://www.w3.org/1999/xlink">
    <!-- Generator: Sketch 52.6 (67491) - http://www.bohemiancoding.com/sketch -->
    <title>Shape</title>
    <desc>Created with Sketch.</desc>
    <g id="Page-1" stroke="none" stroke-width="1" fill="none" fill-rule="evenodd">
        <g id="iPhone-8-Copy-(1)" transform="translate(-37.000000, -195.000000)" fill="#CB0077" fill-rule="nonzero">
            <g id="Автокредит" transform="translate(15.000000, 171.000000)">
                <path d="M59.0828123,42.5200549 L59.0828123,48.6734787 C59.0804596,50.5096903 57.5925026,51.9976474 55.756291,52 L25.3265213,52 C23.4903097,51.9976474 22.0023526,50.5096903 22,48.6734787 L22,31.9810889 C22.0023526,30.1448773 23.4903097,28.6569202 25.3265213,28.6545676 L40.7463779,28.6545676 C41.2180562,28.6545676 41.600427,29.0369384 41.600427,29.5086167 C41.600427,29.980295 41.2180562,30.3626659 40.7463779,30.3626659 L25.3265213,30.3626659 C24.4326909,30.3626659 23.7080982,31.0872585 23.7080982,31.9810889 L23.7080982,34.4236694 L40.5755681,34.4236694 C41.0472464,34.4236694 41.4296172,34.8060402 41.4296172,35.2777185 C41.4296172,35.7493968 41.0472464,36.1317676 40.5755681,36.1317676 L23.7080982,36.1317676 L23.7080982,48.6734787 C23.7080982,49.5673091 24.4326909,50.2919018 25.3265213,50.2919018 L55.756291,50.2919018 C56.6501214,50.2919018 57.374714,49.5673091 57.374714,48.6734787 L57.374714,42.5200549 C57.374714,42.0483766 57.7570849,41.6660058 58.2287632,41.6660058 C58.7004415,41.6660058 59.0828123,42.0483766 59.0828123,42.5200549 Z M42.9669056,33.0187586 C42.9669056,28.0378358 47.0047414,24 51.9856642,24 C56.966587,24 61.0044228,28.0378358 61.0044228,33.0187586 C61.0044228,37.9996814 56.966587,42.0375172 51.9856642,42.0375172 C47.0066929,42.0328089 42.9716138,37.9977299 42.9669056,33.0187586 Z M44.6750038,33.0187586 C44.6750038,37.0563248 47.9480979,40.3294189 51.9856642,40.3294189 C56.0232304,40.3294189 59.2963245,37.0563248 59.2963245,33.0187586 C59.2963245,28.9811923 56.0232304,25.7080982 51.9856642,25.7080982 C47.950049,25.7128045 44.6797101,28.9831434 44.6750038,33.0187586 Z M48.9836816,36.2598749 C49.1438741,36.4202458 49.3612488,36.5103562 49.5879213,36.5103562 C49.8145938,36.5103562 50.0319685,36.4202458 50.192161,36.2598749 L55.0730517,31.3789843 C55.3382772,31.041322 55.3115755,30.5592415 55.0106815,30.2529357 C54.7097875,29.9466299 54.2282595,29.9113399 53.8859234,30.1705048 L48.9836816,35.0513955 C48.8233107,35.211588 48.7332004,35.4289627 48.7332004,35.6556352 C48.7332004,35.8823077 48.8233107,36.0996824 48.9836816,36.2598749 Z M50.6917798,31.8743328 C51.147834,31.4170863 51.1471898,30.6768088 50.6903404,30.2203568 C50.233491,29.7639048 49.4932132,29.7639048 49.0363638,30.2203568 C48.5795145,30.6768088 48.5788702,31.4170863 49.0349245,31.8743328 C49.4916138,32.3298586 50.2308202,32.3298586 50.6875095,31.8743328 L50.6917798,31.8743328 Z M53.3649535,34.5475065 C52.9088992,35.0047529 52.9095434,35.7450304 53.3663928,36.2014824 C53.8232422,36.6579344 54.56352,36.6579344 55.0203694,36.2014824 C55.4772188,35.7450304 55.477863,35.0047529 55.0218088,34.5475065 C54.8021263,34.326107 54.5031404,34.2015806 54.191246,34.2015806 C53.8793515,34.2015806 53.5803657,34.326107 53.3606832,34.5475065 L53.3649535,34.5475065 Z M27.529968,45.4793351 C27.0582897,45.4793351 26.6759189,45.8617059 26.6759189,46.3333842 C26.6759189,46.8050625 27.0582897,47.1874333 27.529968,47.1874333 L31.9923746,47.1874333 C32.4640529,47.1874333 32.8464237,46.8050625 32.8464237,46.3333842 C32.8464237,45.8617059 32.4640529,45.4793351 31.9923746,45.4793351 L27.5256977,45.4793351 L27.529968,45.4793351 Z M35.7715419,45.4793351 C35.2998636,45.4793351 34.9174928,45.8617059 34.9174928,46.3333842 C34.9174928,46.8050625 35.2998636,47.1874333 35.7715419,47.1874333 L40.2211377,47.1874333 C40.692816,47.1874333 41.0751868,46.8050625 41.0751868,46.3333842 C41.0751868,45.8617059 40.692816,45.4793351 40.2211377,45.4793351 L35.7672716,45.4793351 L35.7715419,45.4793351 Z" id="Shape"></path>
            </g>
        </g>
    </g>
</svg>