<?xml version="1.0" encoding="UTF-8"?>
<svg width="29px" height="29px" viewBox="0 0 29 29" version="1.1" xmlns="http://www.w3.org/2000/svg" xmlns:xlink="http://www.w3.org/1999/xlink">
    <!-- Generator: Sketch 52.6 (67491) - http://www.bohemiancoding.com/sketch -->
    <title>Group</title>
    <desc>Created with Sketch.</desc>
    <g id="Page-1" stroke="none" stroke-width="1" fill="none" fill-rule="evenodd">
        <g id="iPhone-8-Copy-(2)" transform="translate(-37.000000, -195.000000)" fill="#419CCB" fill-rule="nonzero">
            <g id="Автокредит" transform="translate(15.000000, 171.000000)">
                <g id="Group" transform="translate(22.000000, 24.000000)">
                    <path d="M28.09375,13.59375 L11.78125,13.59375 C11.281,13.59375 10.875,13.18775 10.875,12.6875 C10.875,12.18725 11.281,11.78125 11.78125,11.78125 L28.09375,11.78125 C28.5949063,11.78125 29,12.18725 29,12.6875 C29,13.18775 28.5949063,13.59375 28.09375,13.59375 Z" id="Shape"></path>
                    <path d="M23.5625,17.21875 L11.78125,17.21875 C11.281,17.21875 10.875,16.8136563 10.875,16.3125 C10.875,15.8113438 11.281,15.40625 11.78125,15.40625 L23.5625,15.40625 C24.0636563,15.40625 24.46875,15.8113438 24.46875,16.3125 C24.46875,16.8136563 24.0636563,17.21875 23.5625,17.21875 Z" id="Shape"></path>
                    <path d="M28.09375,24.46875 L11.78125,24.46875 C11.281,24.46875 10.875,24.0636563 10.875,23.5625 C10.875,23.0613438 11.281,22.65625 11.78125,22.65625 L28.09375,22.65625 C28.5949063,22.65625 29,23.0613438 29,23.5625 C29,24.0636563 28.5949063,24.46875 28.09375,24.46875 Z" id="Shape"></path>
                    <path d="M17.21875,28.09375 L11.78125,28.09375 C11.281,28.09375 10.875,27.6886563 10.875,27.1875 C10.875,26.6863438 11.281,26.28125 11.78125,26.28125 L17.21875,26.28125 C17.7199062,26.28125 18.125,26.6863438 18.125,27.1875 C18.125,27.6886563 17.7199062,28.09375 17.21875,28.09375 Z" id="Shape"></path>
                    <path d="M28.09375,2.71875 L11.78125,2.71875 C11.281,2.71875 10.875,2.31275 10.875,1.8125 C10.875,1.31225 11.281,0.90625 11.78125,0.90625 L28.09375,0.90625 C28.5949063,0.90625 29,1.31225 29,1.8125 C29,2.31275 28.5949063,2.71875 28.09375,2.71875 Z" id="Shape"></path>
                    <path d="M20.84375,6.34375 L11.78125,6.34375 C11.281,6.34375 10.875,5.93775 10.875,5.4375 C10.875,4.93725 11.281,4.53125 11.78125,4.53125 L20.84375,4.53125 C21.3449063,4.53125 21.75,4.93725 21.75,5.4375 C21.75,5.93775 21.3449063,6.34375 20.84375,6.34375 Z" id="Shape"></path>
                    <path d="M3.625,7.25 C1.6258125,7.25 0,5.6241875 0,3.625 C0,1.6258125 1.6258125,0 3.625,0 C5.6241875,0 7.25,1.6258125 7.25,3.625 C7.25,5.6241875 5.6241875,7.25 3.625,7.25 Z M3.625,1.8125 C2.62540625,1.8125 1.8125,2.62540625 1.8125,3.625 C1.8125,4.62459375 2.62540625,5.4375 3.625,5.4375 C4.62459375,5.4375 5.4375,4.62459375 5.4375,3.625 C5.4375,2.62540625 4.62459375,1.8125 3.625,1.8125 Z" id="Shape"></path>
                    <path d="M3.625,18.125 C1.6258125,18.125 0,16.4991875 0,14.5 C0,12.5008125 1.6258125,10.875 3.625,10.875 C5.6241875,10.875 7.25,12.5008125 7.25,14.5 C7.25,16.4991875 5.6241875,18.125 3.625,18.125 Z M3.625,12.6875 C2.62540625,12.6875 1.8125,13.5004062 1.8125,14.5 C1.8125,15.4995937 2.62540625,16.3125 3.625,16.3125 C4.62459375,16.3125 5.4375,15.4995937 5.4375,14.5 C5.4375,13.5004062 4.62459375,12.6875 3.625,12.6875 Z" id="Shape"></path>
                    <path d="M3.625,29 C1.6258125,29 0,27.3741875 0,25.375 C0,23.3758125 1.6258125,21.75 3.625,21.75 C5.6241875,21.75 7.25,23.3758125 7.25,25.375 C7.25,27.3741875 5.6241875,29 3.625,29 Z M3.625,23.5625 C2.62540625,23.5625 1.8125,24.3754063 1.8125,25.375 C1.8125,26.3745938 2.62540625,27.1875 3.625,27.1875 C4.62459375,27.1875 5.4375,26.3745938 5.4375,25.375 C5.4375,24.3754063 4.62459375,23.5625 3.625,23.5625 Z" id="Shape"></path>
                </g>
            </g>
        </g>
    </g>
</svg>