<svg xmlns="http://www.w3.org/2000/svg" xmlns:xlink="http://www.w3.org/1999/xlink" width="24" height="24" viewBox="0 0 24 24"><defs><path id="m3dua" d="M129 639.004c0-.831.674-1.504 1.504-1.504h7.492c.831 0 1.504.674 1.504 1.504v7.492c0 .831-.674 1.504-1.504 1.504h-7.492a1.504 1.504 0 0 1-1.504-1.504zM146.243 645h3.014a.75.75 0 0 0 0-1.5h-3.014a.75.75 0 0 0 0 1.5zm-8.247-6s-7.496.002-7.496.004c0 0 .002 7.496.004 7.496 0 0 7.496-.002 7.496-.004 0 0-.002-7.496-.004-7.496zm8.247 3h3.014a.75.75 0 0 0 0-1.5h-3.014a.75.75 0 0 0 0 1.5zm5.253-16.5s-7.496.002-7.496.004c0 0 .002 7.496.004 7.496 0 0 7.496-.002 7.496-.004 0 0-.002-7.496-.004-7.496zm-8.996.004c0-.831.674-1.504 1.504-1.504h7.492c.831 0 1.504.674 1.504 1.504v7.492c0 .831-.674 1.504-1.504 1.504h-7.492a1.504 1.504 0 0 1-1.504-1.504zm-4.504-.004s-7.496.002-7.496.004c0 0 .002 7.496.004 7.496 0 0 7.496-.002 7.496-.004 0 0-.002-7.496-.004-7.496zm-8.996.004c0-.831.674-1.504 1.504-1.504h7.492c.831 0 1.504.674 1.504 1.504v7.492c0 .831-.674 1.504-1.504 1.504h-7.492a1.504 1.504 0 0 1-1.504-1.504zm15.004 11.996h7.492c.831 0 1.504.674 1.504 1.504v7.492c0 .831-.674 1.504-1.504 1.504h-7.492a1.504 1.504 0 0 1-1.504-1.504v-7.492c0-.831.674-1.504 1.504-1.504z"/><path id="m3dub" d="M132.93 642.307a.62.62 0 0 1 .877-.877l.443.442.443-.442a.62.62 0 0 1 .877.877l-.442.443.442.443a.62.62 0 0 1-.877.877l-.443-.442-.443.442a.62.62 0 0 1-.877-.877l.442-.443zm.57-14.564a.75.75 0 0 1 1.5 0v.757h.757a.75.75 0 0 1 0 1.5H135v.757a.75.75 0 0 1-1.5 0V630h-.757a.75.75 0 0 1 0-1.5h.757zm12 1.507c0-.417.333-.75.743-.75h3.014a.75.75 0 0 1 0 1.5h-3.014a.75.75 0 0 1-.743-.75z"/></defs><g><g transform="translate(-129 -624)"><g><use fill="#fff" fill-opacity=".4" xlink:href="#m3dua"/></g><g><use fill="#fff" fill-opacity=".4" xlink:href="#m3dub"/></g></g></g></svg>