<svg xmlns="http://www.w3.org/2000/svg" xmlns:xlink="http://www.w3.org/1999/xlink" width="100" height="100" viewBox="0 0 100 100"><defs><path id="y7ura" d="M39 322c0-27.614 22.386-50 50-50s50 22.386 50 50-22.386 50-50 50-50-22.386-50-50z"/><path id="y7urb" d="M66.464 302.752a3.715 3.715 0 0 0-3.71 3.711v31.083a3.715 3.715 0 0 0 3.71 3.709h45.064a3.715 3.715 0 0 0 3.711-3.71v-31.082a3.715 3.715 0 0 0-3.71-3.71H66.463zm45.065 40.404H66.463a5.619 5.619 0 0 1-5.613-5.61v-31.082a5.62 5.62 0 0 1 5.613-5.614h45.066a5.619 5.619 0 0 1 5.614 5.614v31.081a5.619 5.619 0 0 1-5.614 5.61z"/><path id="y7urc" d="M116.19 310.523H61.803a.953.953 0 0 1 0-1.903h54.389a.952.952 0 0 1 0 1.903z"/><path id="y7urd" d="M66.16 336.622v-1.902h2.184v1.902zm4.35 0v-1.902h2.185v1.902zm4.35 0v-1.902h2.186v1.902zm4.35 0v-1.902h2.185v1.902zm4.35 0v-1.902h2.186v1.902zm4.351 0v-1.902h2.184v1.902zm4.35 0v-1.902h2.176v1.902zm4.35 0v-1.902h2.176v1.902zm4.35 0v-1.902h2.175v1.902zm4.35 0v-1.902h2.186v1.902zm4.351 0v-1.902h2.185v1.902z"/><path id="y7ure" d="M69.372 326.169h12.084v-8.195H69.372v8.195zm13.034 1.905H68.422a.952.952 0 0 1-.952-.952v-10.1c0-.525.427-.952.952-.952h13.984c.526 0 .952.427.952.952v10.1a.951.951 0 0 1-.952.952z"/></defs><g><g transform="translate(-39 -272)"><g><use fill="#324058" xlink:href="#y7ura"/></g><g><g><use fill="#43c7d2" xlink:href="#y7urb"/></g><g><use fill="#43c7d2" xlink:href="#y7urc"/></g><g><use fill="#f6b93e" xlink:href="#y7urd"/></g><g><use fill="#fff" xlink:href="#y7ure"/></g></g></g></g></svg>