<svg xmlns="http://www.w3.org/2000/svg" xmlns:xlink="http://www.w3.org/1999/xlink" width="100" height="100" viewBox="0 0 100 100"><defs><path id="9o2wa" d="M39 150.995C39 123.384 61.384 101 88.995 101c27.611 0 49.995 22.384 49.995 49.995 0 27.611-22.384 49.995-49.995 49.995C61.384 200.99 39 178.606 39 150.995z"/><path id="9o2wb" d="M75.314 135.143a6.16 6.16 0 0 0-6.151 6.153 6.159 6.159 0 0 0 6.15 6.151 6.16 6.16 0 0 0 6.154-6.15 6.16 6.16 0 0 0-6.153-6.154zm-.005 14.197c-4.439 0-8.049-3.61-8.049-8.049 0-4.44 3.61-8.051 8.049-8.051 4.44 0 8.05 3.612 8.05 8.051s-3.61 8.05-8.05 8.05z"/><path id="9o2wc" d="M101.896 159.243a6.161 6.161 0 0 0-6.154 6.153 6.16 6.16 0 0 0 6.154 6.151 6.159 6.159 0 0 0 6.15-6.151 6.16 6.16 0 0 0-6.15-6.153zm-.005 14.197c-4.44 0-8.051-3.609-8.051-8.05 0-4.438 3.61-8.05 8.05-8.05 4.44 0 8.05 3.612 8.05 8.05 0 4.441-3.61 8.05-8.05 8.05z"/><path id="9o2wd" d="M72.172 172.566a.956.956 0 0 1-.63-.236.954.954 0 0 1-.084-1.345l36.261-40.973a.95.95 0 1 1 1.426 1.26l-36.26 40.974a.947.947 0 0 1-.713.32z"/><path id="9o2we" d="M109.793 140.103a.951.951 0 0 1-.952-.951v-8.7h-8.7a.952.952 0 0 1 0-1.902h9.652c.524 0 .95.426.95.951v9.65a.952.952 0 0 1-.95.952z"/></defs><g><g transform="translate(-39 -101)"><g><use fill="#324058" xlink:href="#9o2wa"/></g><g><g><use fill="#fff" xlink:href="#9o2wb"/></g><g><use fill="#f6b93e" xlink:href="#9o2wc"/></g><g><g><use fill="#43c7d2" xlink:href="#9o2wd"/></g><g><use fill="#43c7d2" xlink:href="#9o2we"/></g></g></g></g></g></svg>