<svg xmlns="http://www.w3.org/2000/svg" xmlns:xlink="http://www.w3.org/1999/xlink" width="24" height="24" viewBox="0 0 24 24"><defs><path id="pfvea" d="M334.5 629.25a3.75 3.75 0 1 0 7.5 0 3.75 3.75 0 0 0-7.5 0zm9 0a5.25 5.25 0 1 1-10.5 0 5.25 5.25 0 0 1 10.5 0zm4.5 15v2.934a.75.75 0 1 1-1.5 0v-2.934a8.25 8.25 0 0 0-8.25-8.25c-4.553 0-8.25 3.698-8.25 8.246v2.943a.75.75 0 0 1-1.5 0v-2.943c0-5.377 4.368-9.746 9.75-9.746a9.75 9.75 0 0 1 9.75 9.75z"/><path id="pfveb" d="M328.5 631.875a1.125 1.125 0 1 0 2.25 0 1.125 1.125 0 0 0-2.25 0zm3.75 0a2.625 2.625 0 1 1-5.25 0 2.625 2.625 0 0 1 5.25 0zM324 639.57c0-2.805 2.36-5.07 5.25-5.07a.75.75 0 0 1 0 1.5c-2.076 0-3.75 1.608-3.75 3.57v1.68a.75.75 0 0 1-1.5 0z"/></defs><g><g transform="translate(-324 -624)"><g><use fill="#fff" xlink:href="#pfvea"/></g><g><use fill="#43c7d2" xlink:href="#pfveb"/></g></g></g></svg>