<svg xmlns="http://www.w3.org/2000/svg" xmlns:xlink="http://www.w3.org/1999/xlink" width="100" height="100" viewBox="0 0 100 100"><defs><path id="reaka" d="M270.997 101C243.387 101 221 123.385 221 150.997c0 27.613 22.386 49.999 49.997 49.999 27.615 0 49.999-22.386 49.999-50 0-27.61-22.384-49.996-50-49.996z"/><path id="reakb" d="M298.28 172.272h-55.43V129.72h55.43v13.659h-1.903v-11.756h-51.624v38.748h51.624v-11.759h1.903v13.66z"/><path id="reakc" d="M255.355 135.083v-1.903h-2.788v1.903zm5.624 0v-1.903h-2.796v1.903zm5.615 0v-1.903h-2.798v1.903zm5.604 0v-1.903h-2.787v1.903zm5.624 0v-1.903h-2.797v1.903zm5.615 0v-1.903h-2.797v1.903zm5.614 0v-1.903h-2.798v1.903zm-39.955.245v-.245h.656v-1.903H247.2v2.148zm44.606.716v-2.864h-1.834l-.059 2.864zm-44.609 4.888v-2.797H247.2v2.797zm44.609.726v-2.807h-1.893v2.807zm-44.609 4.886v-2.798H247.2v2.798zm0 5.623v-2.807H247.2v2.807zm0 5.613v-2.807H247.2v2.807zm44.609 3.623v-2.796h-1.893v2.796zm-44.609 1.98v-2.797H247.2v2.796zm1.29 4.344v-1.913h-2.234v.388h-.949v1.525zm5.604 0v-1.913H253.2v1.913zm5.625 0v-1.913h-2.797v1.913zm5.604 0v-1.913h-2.787v1.913zm5.614 0v-1.913h-2.787v1.913zm5.624 0v-1.913h-2.797v1.913zm5.615 0v-1.913h-2.797v1.913zm5.604 0v-1.913h-2.788v1.913zm4.029-.01v-3.497h-1.893v2.545h.686v.952z"/><path id="reakd" d="M281.03 144.182c-3.759 0-6.816 3.06-6.816 6.82a6.824 6.824 0 0 0 6.816 6.817h16.208v-13.637H281.03zm18.111 15.54H281.03c-4.809 0-8.72-3.913-8.72-8.72 0-4.81 3.911-8.722 8.72-8.722h18.111v17.442z"/><path id="reake" d="M281.79 149.363c-.901 0-1.638.736-1.638 1.638a1.64 1.64 0 0 0 1.638 1.638 1.64 1.64 0 0 0 1.639-1.638c0-.902-.736-1.638-1.639-1.638zm0 5.178a3.544 3.544 0 0 1-3.54-3.54 3.545 3.545 0 0 1 3.54-3.541 3.546 3.546 0 0 1 3.542 3.541 3.544 3.544 0 0 1-3.542 3.54z"/></defs><g><g transform="translate(-221 -101)"><g><use fill="#324058" xlink:href="#reaka"/></g><g><g><use fill="#65d1da" xlink:href="#reakb"/></g><g><use fill="#f6b93e" xlink:href="#reakc"/></g><g><use fill="#65d1da" xlink:href="#reakd"/></g><g><use fill="#fff" xlink:href="#reake"/></g></g></g></g></svg>