<svg xmlns="http://www.w3.org/2000/svg" xmlns:xlink="http://www.w3.org/1999/xlink" width="25" height="25" viewBox="0 0 25 25"><defs><path id="pmpaa" d="M182.576 638c-.87 0-1.576.705-1.576 1.576v7.848c0 .87.705 1.576 1.576 1.576h7.848c.87 0 1.576-.705 1.576-1.576v-7.848c0-.87-.705-1.576-1.576-1.576h-7.848z"/><path id="pmpab" d="M184 642c0 .552.376 1 .826 1h3.348c.456 0 .826-.444.826-1 0-.552-.376-1-.826-1h-3.348c-.456 0-.826.444-.826 1z"/><path id="pmpac" d="M184 645c0 .552.376 1 .826 1h3.348c.456 0 .826-.444.826-1 0-.552-.376-1-.826-1h-3.348c-.456 0-.826.444-.826 1z"/><path id="pmpad" d="M167 639.004c0-.831.674-1.504 1.504-1.504h7.492c.831 0 1.504.674 1.504 1.504v7.492c0 .831-.674 1.504-1.504 1.504h-7.492a1.504 1.504 0 0 1-1.504-1.504zm8.996-.004s-7.496.002-7.496.004c0 0 .002 7.496.004 7.496 0 0 7.496-.002 7.496-.004 0 0-.002-7.496-.004-7.496zm13.5-13.5s-7.496.002-7.496.004c0 0 .002 7.496.004 7.496 0 0 7.496-.002 7.496-.004 0 0-.002-7.496-.004-7.496zm-8.996.004c0-.831.674-1.504 1.504-1.504h7.492c.831 0 1.504.674 1.504 1.504v7.492c0 .831-.674 1.504-1.504 1.504h-7.492a1.504 1.504 0 0 1-1.504-1.504zm-4.504-.004s-7.496.002-7.496.004c0 0 .002 7.496.004 7.496 0 0 7.496-.002 7.496-.004 0 0-.002-7.496-.004-7.496zm-8.996.004c0-.831.674-1.504 1.504-1.504h7.492c.831 0 1.504.674 1.504 1.504v7.492c0 .831-.674 1.504-1.504 1.504h-7.492a1.504 1.504 0 0 1-1.504-1.504z"/><path id="pmpae" d="M170.93 642.307a.62.62 0 0 1 .877-.877l.443.442.443-.442a.62.62 0 0 1 .877.877l-.442.443.442.443a.62.62 0 0 1-.877.877l-.443-.442-.443.442a.62.62 0 0 1-.877-.877l.442-.443zm.57-14.564a.75.75 0 0 1 1.5 0v.757h.757a.75.75 0 0 1 0 1.5H173v.757a.75.75 0 0 1-1.5 0V630h-.757a.75.75 0 0 1 0-1.5h.757zm12 1.507c0-.417.333-.75.743-.75h3.014a.75.75 0 0 1 0 1.5h-3.014a.75.75 0 0 1-.743-.75z"/></defs><g><g transform="translate(-167 -624)"><g><use fill="#43c7d2" xlink:href="#pmpaa"/></g><g><use fill="#324058" xlink:href="#pmpab"/></g><g><use fill="#324058" xlink:href="#pmpac"/></g><g><g><use fill="#fff" xlink:href="#pmpad"/></g><g><use fill="#fff" xlink:href="#pmpae"/></g></g></g></g></svg>