<svg xmlns="http://www.w3.org/2000/svg" xmlns:xlink="http://www.w3.org/1999/xlink" width="100" height="100" viewBox="0 0 100 100"><defs><path id="v8fta" d="M270.998 272C243.388 272 221 294.384 221 321.997s22.388 49.999 49.998 49.999c27.611 0 50.002-22.386 50.002-50C321 294.385 298.61 272 270.998 272z"/><path id="v8ftb" d="M244.753 337.364h52.486V306.63h-52.486v30.733zm53.438 1.902h-54.39a.951.951 0 0 1-.951-.953v-32.632a.95.95 0 0 1 .951-.951h54.39c.524 0 .95.426.95.95v32.634a.952.952 0 0 1-.95.952z"/><path id="v8ftc" d="M257.703 330.107c-2.163 0-3.747-.49-4.71-1.46-1.02-1.022-1.013-2.237-1.013-2.638a.968.968 0 0 1 .953-.964h.002c.525 0 .95.404.95.93-.001.312-.005.866.457 1.33.585.589 1.746.898 3.36.898 1.864 0 3.174-.374 3.898-1.11.753-.77.733-1.844.72-2.487v-.222c-.003-.025-.225-3.024-4.617-3.024-3.957 0-5.721-1.274-5.721-4.134-.002-1.05-.006-2.462 1.066-3.536.934-.935 2.456-1.39 4.655-1.39 2.084 0 3.648.529 4.651 1.574 1.098 1.143 1.078 2.454 1.072 2.599-.02.526-.504.905-.99.911a.95.95 0 0 1-.913-.976c0-.049-.013-.684-.568-1.242-.626-.63-1.751-.963-3.252-.963-1.62 0-2.765.287-3.306.83-.516.516-.513 1.308-.513 2.073 0 1.166 0 2.351 3.819 2.351 5.412 0 6.518 3.886 6.518 4.927l.004.186c.016.818.048 2.52-1.266 3.856-1.095 1.116-2.864 1.68-5.256 1.68z"/><path id="v8ftd" d="M258.101 313.392a.95.95 0 0 1-.951-.951v-2.12a.95.95 0 1 1 1.902 0v2.12a.951.951 0 0 1-.95.951z"/><path id="v8fte" d="M258.151 333.024a.953.953 0 0 1-.951-.952v-2.12a.951.951 0 1 1 1.903 0v2.12a.953.953 0 0 1-.952.952z"/><path id="v8ftf" d="M291.128 319.682H270.46v-1.902h20.668v1.902z"/><path id="v8ftg" d="M270.46 327.302V325.4h2.176v1.902zm4.352 0V325.4h2.176v1.902zm4.352 0V325.4h2.184v1.902zm4.35 0V325.4h2.185v1.902zm4.352 0V325.4h2.166v1.902z"/></defs><g><g transform="translate(-221 -272)"><g><use fill="#324058" xlink:href="#v8fta"/></g><g><g><use fill="#43c7d2" xlink:href="#v8ftb"/></g><g><use fill="#ffba21" xlink:href="#v8ftc"/></g><g><use fill="#ffba21" xlink:href="#v8ftd"/></g><g><use fill="#ffba21" xlink:href="#v8fte"/></g><g><use fill="#fff" xlink:href="#v8ftf"/></g><g><use fill="#43c7d2" xlink:href="#v8ftg"/></g></g></g></g></svg>