<svg xmlns="http://www.w3.org/2000/svg" xmlns:xlink="http://www.w3.org/1999/xlink" width="24" height="24" viewBox="0 0 24 24"><defs><path id="kipwa" d="M235.755 633.75h8.99a.75.75 0 0 1 0 1.5h-8.99a.75.75 0 0 1 0-1.5zm0-3h8.99a.75.75 0 0 1 0 1.5h-8.99a.75.75 0 0 1 0-1.5zm0-3h8.99a.75.75 0 0 1 0 1.5h-8.99a.75.75 0 0 1 0-1.5z"/><path id="kipwb" d="M229.627 648h18.119a2.252 2.252 0 0 0 2.254-2.244v-19.512c0-1.24-1.01-2.244-2.254-2.244h-14.992a2.258 2.258 0 0 0-2.254 2.255v14.602a.75.75 0 0 0 1.5 0v-14.602c0-.414.34-.755.754-.755h14.992c.418 0 .754.334.754.744v19.512a.752.752 0 0 1-.754.744h-19.62a.75.75 0 0 0 0 1.5h1.5zM232 630.754a595.255 595.255 0 0 1 .002-1.502.75.75 0 0 0-.75-.752h-3.004a2.25 2.25 0 0 0-2.248 2.254v14.992a2.252 2.252 0 0 0 2.248 2.254.75.75 0 1 0 0-1.5.752.752 0 0 1-.748-.754v-14.992a.75.75 0 0 1 .748-.754h3.004v-.75l-.75-.002a425.451 425.451 0 0 0-.002 1.506v6.753a.75.75 0 1 0 1.5 0v-6.753z"/></defs><g><g transform="translate(-226 -624)"><g><use fill="#fff" fill-opacity=".4" xlink:href="#kipwa"/></g><g><use fill="#fff" fill-opacity=".4" xlink:href="#kipwb"/></g></g></g></svg>