<svg xmlns="http://www.w3.org/2000/svg" xmlns:xlink="http://www.w3.org/1999/xlink" width="100" height="100" viewBox="0 0 100 100"><defs><path id="ma6qa" d="M270.997 444C243.387 444 221 466.388 221 493.996c0 27.614 22.386 50 49.997 50 27.612 0 50-22.386 50-50 0-27.608-22.388-49.996-50-49.996z"/><path id="ma6qb" d="M298.194 507.409a.952.952 0 0 1-.952-.955v-29.64h-47.72a.952.952 0 1 1 0-1.904h48.672c.525 0 .952.426.952.952v30.592a.953.953 0 0 1-.952.955z"/><path id="ma6qc" d="M244.753 511.185h46.768v-28.69h-46.768v28.69zm47.723 1.902H243.8a.95.95 0 0 1-.951-.95v-30.595c0-.525.426-.952.951-.952h48.675c.523 0 .95.427.95.952v30.595a.95.95 0 0 1-.95.95z"/><path id="ma6qd" d="M268.139 490.374c-2.545 0-4.616 2.901-4.616 6.465 0 3.565 2.07 6.466 4.616 6.466 2.545 0 4.617-2.901 4.617-6.466 0-3.564-2.072-6.465-4.617-6.465zm-.005 14.833c-3.593 0-6.514-3.755-6.514-8.368 0-4.614 2.92-8.369 6.514-8.369 3.592 0 6.516 3.755 6.516 8.37 0 4.612-2.924 8.367-6.516 8.367z"/><path id="ma6qe" d="M257.337 497.883h-7.435a.951.951 0 1 1 0-1.903h7.435a.952.952 0 1 1 0 1.903z"/><path id="ma6qf" d="M286.018 497.883h-7.434a.951.951 0 1 1 0-1.903h7.434a.952.952 0 1 1 0 1.903z"/><path id="ma6qg" d="M244.165 490.08h-.184a.953.953 0 0 1 .011-1.903l.173.001c5.628 0 9.303-3.278 10.344-6.352a.953.953 0 0 1 1.803.61c-1.253 3.7-5.583 7.645-12.147 7.645z"/><path id="ma6qh" d="M291.438 490.081c-6.564 0-10.894-3.944-12.147-7.643a.951.951 0 0 1 1.8-.612c1.053 3.104 4.748 6.42 10.51 6.35.54-.04.955.416.962.942a.952.952 0 0 1-.941.963h-.184z"/><path id="ma6qi" d="M255.41 512.83a.95.95 0 0 1-.901-.646c-1.052-3.103-4.755-6.406-10.507-6.35-.568-.03-.956-.415-.962-.942a.951.951 0 0 1 .941-.962c6.683-.043 11.066 3.91 12.331 7.644a.953.953 0 0 1-.902 1.256z"/><path id="ma6qj" d="M280.19 512.821a.951.951 0 0 1-.899-1.258c1.263-3.732 5.642-7.736 12.33-7.641a.95.95 0 0 1 .942.962c-.007.526-.427.907-.963.941-5.693-.054-9.456 3.247-10.508 6.35a.95.95 0 0 1-.903.646z"/></defs><g><g transform="translate(-221 -444)"><g><use fill="#324058" xlink:href="#ma6qa"/></g><g><g><use fill="#43c7d2" xlink:href="#ma6qb"/></g><g><use fill="#43c7d2" xlink:href="#ma6qc"/></g><g><use fill="#ffba21" xlink:href="#ma6qd"/></g><g><use fill="#fff" xlink:href="#ma6qe"/></g><g><use fill="#fff" xlink:href="#ma6qf"/></g><g><use fill="#43c7d2" xlink:href="#ma6qg"/></g><g><use fill="#43c7d2" xlink:href="#ma6qh"/></g><g><use fill="#43c7d2" xlink:href="#ma6qi"/></g><g><use fill="#43c7d2" xlink:href="#ma6qj"/></g></g></g></g></svg>