<svg xmlns="http://www.w3.org/2000/svg" xmlns:xlink="http://www.w3.org/1999/xlink" width="100" height="100" viewBox="0 0 100 100"><defs><path id="eo2ia" d="M89.001 444C61.388 444 39 466.388 39 493.999c0 27.614 22.388 49.997 50.001 49.997 27.612 0 49.996-22.383 49.996-49.997 0-27.61-22.384-49.999-49.996-49.999z"/><path id="eo2ib" d="M62.753 493.118H60.85c0-7.282 2.837-14.13 7.986-19.28 9.55-9.55 24.874-10.64 35.645-2.538l.1.088 5.265 5.266-1.346 1.345-5.216-5.218c-10.017-7.488-24.235-6.463-33.102 2.401-4.79 4.792-7.43 11.161-7.43 17.936z"/><path id="eo2ic" d="M89.836 522.117c-5.733 0-11.484-1.782-16.32-5.42l-.1-.087-5.266-5.268 1.346-1.345 5.22 5.218c10.015 7.493 24.231 6.467 33.102-2.398 4.788-4.795 7.427-11.164 7.427-17.937h1.904c0 7.282-2.835 14.13-7.987 19.283-5.262 5.26-12.282 7.954-19.326 7.954z"/><path id="eo2id" d="M109.177 478.282H99.53v-1.904h8.697v-8.698h1.903v9.65l-.952.952z"/><path id="eo2ie" d="M69.773 520.309H67.87v-9.647l.951-.952h9.65v1.902h-8.698v8.697z"/><path id="eo2if" d="M78.98 482.65h19.326a.7.7 0 1 0 0-1.4H78.98a.7.7 0 1 0 0 1.4z"/><path id="eo2ig" d="M98.306 488.4H78.98a.7.7 0 1 0 0 1.4h8.963v18.25a.7.7 0 1 0 1.4 0V489.8h8.963a.7.7 0 1 0 0-1.4z"/></defs><g><g transform="translate(-39 -444)"><g><use fill="#324058" xlink:href="#eo2ia"/></g><g><g><use fill="#43c7d2" xlink:href="#eo2ib"/></g><g><use fill="#fff" xlink:href="#eo2ic"/></g><g><use fill="#43c7d2" xlink:href="#eo2id"/></g><g><use fill="#fff" xlink:href="#eo2ie"/></g><g><g><use fill="#ffba21" xlink:href="#eo2if"/><use fill="#fff" fill-opacity="0" stroke="#ffba21" stroke-miterlimit="50" stroke-width=".5" xlink:href="#eo2if"/></g><g><use fill="#ffba21" xlink:href="#eo2ig"/><use fill="#fff" fill-opacity="0" stroke="#ffba21" stroke-miterlimit="50" stroke-width=".5" xlink:href="#eo2ig"/></g></g></g></g></g></svg>