<svg xmlns="http://www.w3.org/2000/svg" xmlns:xlink="http://www.w3.org/1999/xlink" width="28" height="28" viewBox="0 0 28 28"><defs><path id="d0tma" d="M37.25 640.25h-.875 5.25-.875v7.875a.875.875 0 1 0 1.75 0v-8.75a.875.875 0 0 0-.875-.875h-5.25a.875.875 0 0 0-.875.875v8.75a.875.875 0 1 0 1.75 0zm-.878-5.25a.872.872 0 0 0-.872.875c0 .483.396.875.872.875h5.256a.872.872 0 0 0 .872-.875.877.877 0 0 0-.872-.875z"/><path id="d0tmb" d="M28.496 648.128c0 .48.388.868.875.868a.878.878 0 0 0 .875-.868v-15.764c0-.051-.005-.1-.013-.149L39 623.457l8.759 8.759a.84.84 0 0 0-.013.148v15.764c0 .48.388.868.875.868a.878.878 0 0 0 .875-.868v-14.176l1.662 1.662a.875.875 0 0 0 1.237-1.237l-12.78-12.78a.875.875 0 0 0-1.238 0l-12.78 12.78a.875.875 0 1 0 1.237 1.237l1.662-1.662z"/></defs><g><g transform="translate(-25 -621)"><g><use fill="#fff" fill-opacity=".4" xlink:href="#d0tma"/></g><g><use fill="#fff" fill-opacity=".4" xlink:href="#d0tmb"/></g></g></g></svg>