<?xml version="1.0" encoding="UTF-8"?>
<svg width="36px" height="26px" viewBox="0 0 36 26" version="1.1" xmlns="http://www.w3.org/2000/svg" xmlns:xlink="http://www.w3.org/1999/xlink">
    <!-- Generator: Sketch 52.6 (67491) - http://www.bohemiancoding.com/sketch -->
    <title>Group</title>
    <desc>Created with Sketch.</desc>
    <g id="Page-1" stroke="none" stroke-width="1" fill="none" fill-rule="evenodd">
        <g id="iPhone-8-Copy-(3)" transform="translate(-37.000000, -197.000000)" fill="#BD10E0" fill-rule="nonzero">
            <g id="Безналичные" transform="translate(15.000000, 171.000000)">
                <g id="Group" transform="translate(22.000000, 26.000000)">
                    <path d="M25.6075586,26 C23.647632,26 21.6877055,25.9985195 19.7262976,25.9985195 L4.55649586,25.9955584 C1.50475841,25.9955584 0.0188881808,24.5327924 0.00999962515,21.5213894 C-0.00333320838,15.8494697 -0.00333320838,10.1790305 0.00999962515,4.50711083 C0.0188881808,1.52087693 1.54771976,0.00629226279 4.55501443,0.00333119795 C13.2850575,-0.00111039932 22.0047307,-0.00111039932 30.7258852,0.00333119795 C33.7746598,0.00481173037 35.26053,1.47794149 35.2679372,4.50711083 L35.2679372,4.50414976 C35.2857143,10.221966 35.2901586,15.9412627 35.28127,21.6605595 C35.2783072,24.4528436 33.7079957,25.9940779 30.8651393,25.9970389 C29.1126124,25.9985195 27.3600855,26 25.6075586,26 Z M17.6419313,1.47646096 C13.2806133,1.47646096 8.91781385,1.47942202 4.55649586,1.48238309 C2.35657833,1.48534415 1.49735128,2.33516976 1.49142557,4.50859136 C1.47809274,10.17755 1.47809274,15.8479892 1.49142557,21.5169478 C1.49735128,23.7022137 2.32694981,24.5135454 4.55649586,24.5135454 L19.727779,24.5165065 C23.438751,24.5165065 27.1482416,24.5194676 30.8636578,24.515026 C32.89173,24.5120649 33.7968812,23.6311481 33.7998441,21.6561179 C33.8087326,15.9397822 33.8042883,10.2234465 33.7865112,4.50859136 C33.7805855,2.30407858 32.950987,1.48386362 30.7258852,1.48238309 C26.3645672,1.47942202 22.0032492,1.47646096 17.6419313,1.47646096 Z M26.3008659,11.0880774 C24.4772306,11.0880774 22.9809904,9.62679194 22.9572876,7.81165919 C22.9454361,6.94850879 23.2832013,6.12089117 23.9054002,5.48426223 C24.5305619,4.84319169 25.3927518,4.47157805 26.269756,4.46417539 C26.280126,4.46417539 26.2919774,4.46417539 26.3023473,4.46417539 C26.9304719,4.46417539 27.5245237,4.64480034 28.0341343,4.95719268 C28.1037613,4.88908819 28.1882026,4.83430849 28.2844953,4.79729518 C30.1185006,4.09256175 31.559928,4.46269485 32.5643348,5.89436971 C33.4354133,7.13505588 33.3924519,8.54008114 32.4428579,9.75115667 C31.7391806,10.6528009 30.4547843,11.545562 28.360048,10.703139 C28.2667181,10.6661257 28.1867211,10.611346 28.1185756,10.5462026 C27.5897065,10.8941277 26.9749147,11.0821553 26.3364201,11.089558 C26.3245687,11.0880774 26.3127173,11.0880774 26.3008659,11.0880774 Z M26.3023473,5.94322728 C26.2964216,5.94322728 26.2904959,5.94322728 26.2830888,5.94322728 C25.7971811,5.94766887 25.3171991,6.15790448 24.9646197,6.51767386 C24.6194475,6.8715211 24.4327878,7.32456403 24.4387135,7.79241227 C24.4505649,8.7799274 25.3023848,9.60754502 26.3023473,9.60754502 C26.308273,9.60754502 26.3141987,9.60754502 26.3216059,9.60754502 C26.8075136,9.60310342 27.2726813,9.40175101 27.629705,9.04346217 C27.9837658,8.68665385 28.1748697,8.22916934 28.1704255,7.75539896 C28.1600555,6.76936437 27.3067541,5.94322728 26.3023473,5.94322728 Z M29.1911279,9.42988113 C30.0947978,9.71858495 30.7273666,9.53499893 31.2740128,8.83914869 C31.8236218,8.13737633 31.8488061,7.45188981 31.351047,6.74419532 C30.9436548,6.16382661 30.3955272,5.6885757 29.1526109,6.0631504 C29.4622289,6.5561677 29.6459257,7.13209481 29.6518514,7.74207417 C29.6577771,8.33872874 29.4977831,8.91909744 29.1911279,9.42988113 Z" id="Shape"></path>
                    <path d="M18.7569946,23.2142857 L5.38437955,23.2142857 C4.97505918,23.2142857 4.64285714,22.7982857 4.64285714,22.2857143 C4.64285714,21.7731429 4.97505918,21.3571429 5.38437955,21.3571429 L18.7584776,21.3571429 C19.167798,21.3571429 19.5,21.7731429 19.5,22.2857143 C19.5,22.7982857 19.167798,23.2142857 18.7569946,23.2142857 Z" id="Shape"></path>
                    <path d="M6.5,20.4285714 C5.98742857,20.4285714 5.57142857,20.08121 5.57142857,19.6532112 L5.57142857,16.5610745 C5.57142857,16.1330757 5.98742857,15.7857143 6.5,15.7857143 C7.01257143,15.7857143 7.42857143,16.1330757 7.42857143,16.5610745 L7.42857143,19.6532112 C7.42857143,20.0827608 7.01442857,20.4285714 6.5,20.4285714 Z" id="Shape"></path>
                    <path d="M9.28571429,20.4285714 C8.77314286,20.4285714 8.35714286,20.08121 8.35714286,19.6532112 L8.35714286,16.5610745 C8.35714286,16.1330757 8.77314286,15.7857143 9.28571429,15.7857143 C9.79828571,15.7857143 10.2142857,16.1330757 10.2142857,16.5610745 L10.2142857,19.6532112 C10.2142857,20.0827608 9.80014286,20.4285714 9.28571429,20.4285714 Z" id="Shape"></path>
                    <path d="M12.0714286,20.4285714 C11.5588571,20.4285714 11.1428571,20.08121 11.1428571,19.6532112 L11.1428571,16.5610745 C11.1428571,16.1330757 11.5588571,15.7857143 12.0714286,15.7857143 C12.584,15.7857143 13,16.1330757 13,16.5610745 L13,19.6532112 C13,20.0827608 12.5858571,20.4285714 12.0714286,20.4285714 Z" id="Shape"></path>
                    <path d="M15.7857143,20.4285714 C15.2731429,20.4285714 14.8571429,20.08121 14.8571429,19.6532112 L14.8571429,16.5610745 C14.8571429,16.1330757 15.2731429,15.7857143 15.7857143,15.7857143 C16.2982857,15.7857143 16.7142857,16.1330757 16.7142857,16.5610745 L16.7142857,19.6532112 C16.7142857,20.0827608 16.3001429,20.4285714 15.7857143,20.4285714 Z" id="Shape"></path>
                    <path d="M18.5714286,20.4285714 C18.0588571,20.4285714 17.6428571,20.08121 17.6428571,19.6532112 L17.6428571,16.5610745 C17.6428571,16.1330757 18.0588571,15.7857143 18.5714286,15.7857143 C19.084,15.7857143 19.5,16.1330757 19.5,16.5610745 L19.5,19.6532112 C19.5,20.0827608 19.0858571,20.4285714 18.5714286,20.4285714 Z" id="Shape"></path>
                </g>
            </g>
        </g>
    </g>
</svg>