<?xml version="1.0" encoding="UTF-8"?>
<svg width="29px" height="39px" viewBox="0 0 29 39" version="1.1" xmlns="http://www.w3.org/2000/svg" xmlns:xlink="http://www.w3.org/1999/xlink">
    <!-- Generator: Sketch 52.6 (67491) - http://www.bohemiancoding.com/sketch -->
    <title>Shape</title>
    <desc>Created with Sketch.</desc>
    <g id="Page-1" stroke="none" stroke-width="1" fill="none" fill-rule="evenodd">
        <g id="iPhone-8-Copy-(2)" transform="translate(-36.000000, -102.000000)" fill="#F7C033" fill-rule="nonzero" stroke="#F7C033" stroke-width="0.2">
            <g id="Ипотека" transform="translate(15.000000, 84.000000)">
                <path d="M27.714819,19.0012266 C27.4621345,19.0494407 27.2808488,19.2725615 27.2853818,19.5297648 L27.2853818,26.4007611 L24.6426909,26.4007611 C23.1877823,26.4007611 22,27.588545 22,29.043452 L22,53.3562082 C22,54.8111152 23.1877823,55.9988991 24.6426909,55.9988991 L46.8412943,55.9988991 C48.296203,55.9988991 49.4839852,54.8111152 49.4839852,53.3562082 L49.4839852,29.043452 C49.4839852,27.588545 48.296203,26.4007611 46.8412943,26.4007611 L44.1986035,26.4007611 L44.1986035,19.5297648 C44.1985743,19.2378733 43.9619568,19.0012558 43.6700653,19.0012266 L27.81392,19.0012266 C27.7809592,18.9981232 27.7477798,18.9981232 27.714819,19.0012266 Z M28.3424581,20.058303 L43.1415271,20.058303 L43.1415271,32.7432192 L28.3424581,32.7432192 L28.3424581,20.058303 Z M35.6759253,21.0988625 C35.403667,21.1329772 35.2027791,21.3697379 35.2134544,21.6439175 L35.2134544,22.2054893 C34.7594851,22.2445367 34.2554695,22.3342655 33.7930081,22.5688593 C33.1397862,22.900221 32.5707636,23.5961737 32.5707636,24.5508775 C32.5707636,25.0597963 32.8333228,25.4886733 33.1488522,25.7896388 C33.4643815,26.0906043 33.8415321,26.2877332 34.2059285,26.4503116 C34.5831859,26.6186309 34.9426172,26.739025 35.2134544,26.8136816 L35.2134544,29.5059229 C34.3212746,29.3109325 33.3966045,28.7296325 33.3966045,28.7296325 C33.2402308,28.6234164 33.0390701,28.6086931 32.8688975,28.6910086 C32.6987249,28.7733241 32.5853938,28.9401727 32.5715948,29.1287043 C32.5577958,29.3172358 32.6456254,29.4988078 32.801999,29.6050238 C32.801999,29.6050238 33.9083748,30.4084114 35.2134544,30.5960329 L35.2134544,31.1576047 C35.2107587,31.3482146 35.3109038,31.5255103 35.4755422,31.6216019 C35.6401805,31.7176935 35.8438047,31.7176935 36.0084431,31.6216019 C36.1730814,31.5255103 36.2732265,31.3482146 36.2705308,31.1576047 L36.2705308,30.5960329 C36.7244996,30.5521505 37.2285152,30.4507399 37.6909771,30.2161461 C38.3442001,29.8847844 38.9132217,29.2053538 38.9132217,28.2506447 C38.9132217,27.7417206 38.6506629,27.3128489 38.3351331,27.0118834 C38.0196032,26.7109179 37.6424531,26.4972722 37.2780567,26.3346938 C36.9010139,26.1664707 36.5413284,26.0625041 36.2705308,25.9878407 L36.2705308,23.3121161 C37.1623703,23.5035215 38.0873808,24.0553729 38.0873808,24.0553729 C38.2437544,24.161589 38.4449151,24.1763123 38.6150877,24.0939968 C38.7852603,24.0116813 38.8985915,23.8448327 38.9123904,23.6563011 C38.9261894,23.4677696 38.8383598,23.2861976 38.6819862,23.1799816 C38.6819862,23.1799816 37.5755508,22.4066377 36.2705308,22.2220061 L36.2705308,21.6439175 C36.2766016,21.4886631 36.2140592,21.3386005 36.0995254,21.2336111 C35.9849915,21.1286218 35.8300669,21.0793397 35.6759253,21.0988625 Z M35.2134544,23.2625657 L35.2134544,25.7070548 C35.0338884,25.6505989 34.8342505,25.5810708 34.6353658,25.4923361 C34.3390895,25.3601487 34.0555674,25.1850123 33.8755922,25.0133484 C33.695617,24.8416845 33.6278399,24.7127634 33.6278399,24.5508775 C33.6278399,23.9658439 33.8606959,23.7189584 34.2719958,23.510318 C34.5377591,23.3755042 34.8791942,23.3007621 35.2134544,23.2625657 Z M36.2705308,27.0944675 C36.4500969,27.1509233 36.6497353,27.2039346 36.8486194,27.2926693 C37.1448957,27.4248567 37.4284184,27.5999931 37.6083931,27.771657 C37.7883677,27.9433209 37.8561453,28.0887535 37.8561453,28.2506447 C37.8561453,28.8356836 37.6232883,29.066047 37.2119894,29.2746874 C36.9462272,29.4095012 36.604791,29.4958796 36.2705308,29.5389565 L36.2705308,27.0944675 Z M24.6426909,27.4578375 L27.2853818,27.4578375 L27.2853818,33.2717574 C27.285411,33.5636489 27.5220285,33.8002664 27.81392,33.8002956 L43.6700653,33.8002956 C43.9619568,33.8002664 44.1985743,33.5636489 44.1986035,33.2717574 L44.1986035,27.4578375 L46.8412943,27.4578375 C47.7288669,27.4578375 48.4269089,28.1558778 48.4269089,29.043452 L48.4269089,53.3562082 C48.4269089,54.2437823 47.7288669,54.9418227 46.8412943,54.9418227 L24.6426909,54.9418227 C23.7551183,54.9418227 23.0570764,54.2437823 23.0570764,53.3562082 L23.0570764,29.043452 C23.0570764,28.1558778 23.7551183,27.4578375 24.6426909,27.4578375 Z M25.0721282,37.5000628 C24.7802246,37.5274288 24.5657745,37.7862479 24.5931404,38.0781515 C24.6205064,38.370055 24.8793255,38.5845051 25.1712291,38.5571392 L30.4566108,38.5571392 C30.6472207,38.5598349 30.8245164,38.4596898 30.920608,38.2950515 C31.0166996,38.1304131 31.0166996,37.9267889 30.920608,37.7621506 C30.8245164,37.5975122 30.6472207,37.4973671 30.4566108,37.5000628 L25.1712291,37.5000628 C25.1382683,37.4969594 25.1050889,37.4969594 25.0721282,37.5000628 Z M33.0002008,37.5000628 C32.7082973,37.5274288 32.4938472,37.7862479 32.5212131,38.0781515 C32.5485791,38.370055 32.8073982,38.5845051 33.0993017,38.5571392 L38.3846835,38.5571392 C38.5752934,38.5598349 38.7525891,38.4596898 38.8486807,38.2950515 C38.9447723,38.1304131 38.9447723,37.9267889 38.8486807,37.7621506 C38.7525891,37.5975122 38.5752934,37.4973671 38.3846835,37.5000628 L33.0993017,37.5000628 C33.066341,37.4969594 33.0331616,37.4969594 33.0002008,37.5000628 Z M40.9282735,37.5000628 C40.6363699,37.5274288 40.4219198,37.7862479 40.4492858,38.0781515 C40.4766517,38.370055 40.7354708,38.5845051 41.0273744,38.5571392 L46.3127562,38.5571392 C46.503366,38.5598349 46.6806617,38.4596898 46.7767533,38.2950515 C46.8728449,38.1304131 46.8728449,37.9267889 46.7767533,37.7621506 C46.6806617,37.5975122 46.503366,37.4973671 46.3127562,37.5000628 L41.0273744,37.5000628 C40.9944136,37.4969594 40.9612342,37.4969594 40.9282735,37.5000628 Z M46.2466889,43.8260042 C45.9744306,43.8601188 45.7735427,44.0968795 45.784218,44.3710591 L45.784218,50.1849791 L41.0273744,50.1849791 C40.8367645,50.1822834 40.6594688,50.2824285 40.5633772,50.4470668 C40.4672856,50.6117052 40.4672856,50.8153294 40.5633772,50.9799677 C40.6594688,51.1446061 40.8367645,51.2447512 41.0273744,51.2420555 L46.3127562,51.2420555 C46.6046477,51.2420263 46.8412652,51.0054088 46.8412943,50.7135173 L46.8412943,44.3710591 C46.8473651,44.2158048 46.7848228,44.0657421 46.6702889,43.9607528 C46.5557551,43.8557634 46.4008305,43.8064814 46.2466889,43.8260042 Z M25.0721282,43.842521 C24.7802246,43.8698869 24.5657745,44.128706 24.5931404,44.4206096 C24.6205064,44.7125132 24.8793255,44.9269633 25.1712291,44.8995973 L30.4566108,44.8995973 C30.6472207,44.902293 30.8245164,44.8021479 30.920608,44.6375096 C31.0166996,44.4728712 31.0166996,44.2692471 30.920608,44.1046087 C30.8245164,43.9399704 30.6472207,43.8398253 30.4566108,43.842521 L25.1712291,43.842521 C25.1382683,43.8394175 25.1050889,43.8394175 25.0721282,43.842521 Z M33.0002008,43.842521 C32.7082973,43.8698869 32.4938472,44.128706 32.5212131,44.4206096 C32.5485791,44.7125132 32.8073982,44.9269633 33.0993017,44.8995973 L38.3846835,44.8995973 C38.5752934,44.902293 38.7525891,44.8021479 38.8486807,44.6375096 C38.9447723,44.4728712 38.9447723,44.2692471 38.8486807,44.1046087 C38.7525891,43.9399704 38.5752934,43.8398253 38.3846835,43.842521 L33.0993017,43.842521 C33.066341,43.8394175 33.0331616,43.8394175 33.0002008,43.842521 Z M25.0721282,50.1849791 C24.7802246,50.2123451 24.5657745,50.4711642 24.5931404,50.7630677 C24.6205064,51.0549713 24.8793255,51.2694214 25.1712291,51.2420555 L30.4566108,51.2420555 C30.6472207,51.2447512 30.8245164,51.1446061 30.920608,50.9799677 C31.0166996,50.8153294 31.0166996,50.6117052 30.920608,50.4470668 C30.8245164,50.2824285 30.6472207,50.1822834 30.4566108,50.1849791 L25.1712291,50.1849791 C25.1382683,50.1818757 25.1050889,50.1818757 25.0721282,50.1849791 Z M33.0002008,50.1849791 C32.7082973,50.2123451 32.4938472,50.4711642 32.5212131,50.7630677 C32.5485791,51.0549713 32.8073982,51.2694214 33.0993017,51.2420555 L38.3846835,51.2420555 C38.5752934,51.2447512 38.7525891,51.1446061 38.8486807,50.9799677 C38.9447723,50.8153294 38.9447723,50.6117052 38.8486807,50.4470668 C38.7525891,50.2824285 38.5752934,50.1822834 38.3846835,50.1849791 L33.0993017,50.1849791 C33.066341,50.1818757 33.0331616,50.1818757 33.0002008,50.1849791 Z" id="Shape"></path>
            </g>
        </g>
    </g>
</svg>