<?xml version="1.0" encoding="UTF-8"?>
<svg width="36px" height="36px" viewBox="0 0 36 36" version="1.1" xmlns="http://www.w3.org/2000/svg" xmlns:xlink="http://www.w3.org/1999/xlink">
    <!-- Generator: Sketch 52.6 (67491) - http://www.bohemiancoding.com/sketch -->
    <title>Group</title>
    <desc>Created with Sketch.</desc>
    <g id="Page-1" stroke="none" stroke-width="1" fill="none" fill-rule="evenodd">
        <g id="iPhone-8-(2)" transform="translate(-49.000000, -484.000000)" fill="#FFFFFF" fill-rule="nonzero">
            <g id="Group" transform="translate(49.000000, 484.000000)">
                <path d="M17.9997919,31.2631579 C10.6867944,31.2631579 4.73684211,25.3132056 4.73684211,17.9997919 C4.73684211,10.6863782 10.6867944,4.73684211 17.9997919,4.73684211 C25.3132056,4.73684211 31.2631579,10.6867944 31.2631579,17.9997919 C31.2631579,25.3132056 25.3132056,31.2631579 17.9997919,31.2631579 Z M17.9997919,6.20560132 C11.4967138,6.20560132 6.20560132,11.4962976 6.20560132,17.9997919 C6.20560132,24.5032862 11.4967138,29.7939825 17.9997919,29.7939825 C24.5032862,29.7939825 29.7939825,24.5032862 29.7939825,17.9997919 C29.7939825,11.4962976 24.5032862,6.20560132 17.9997919,6.20560132 Z" id="Shape"></path>
                <path d="M18.2703382,18.9473684 C18.1782775,18.9473684 18.0862167,18.9287698 17.9991426,18.8904101 L10.8272255,15.7263158 C10.4846827,15.5752018 10.3281794,15.1722312 10.4777782,14.8258314 C10.6273769,14.4802067 11.0270741,14.3221182 11.3692332,14.4728447 L17.593308,17.2184695 L17.593308,11.1049403 C17.593308,10.7271553 17.8963414,10.4210526 18.2703382,10.4210526 C18.6443351,10.4210526 18.9473684,10.7271553 18.9473684,11.1049403 L18.9473684,18.2638683 C18.9473684,18.4944139 18.8322925,18.7094608 18.6408828,18.8357766 C18.5288755,18.9097837 18.3996069,18.9473684 18.2703382,18.9473684 Z" id="Shape"></path>
                <path d="M18.0006203,36 C16.7170769,36 15.430639,35.8623003 14.1772821,35.5914495 C13.9539852,35.5430685 13.8121504,35.3230798 13.8605314,35.0997829 C13.9089123,34.8768996 14.1297281,34.7346512 14.3521979,34.7830322 C15.5484901,35.0418911 16.7757957,35.1729746 18.0006203,35.1729746 C22.5715894,35.1729746 26.8733617,33.3973512 30.1136471,30.1731929 C33.3762621,26.9262914 35.1729746,22.6030163 35.1729746,17.9997932 C35.1729746,13.4288241 33.3973512,9.12705177 30.1731929,5.88717996 C26.9267049,2.62415144 22.6030163,0.827025351 17.9993797,0.827025351 C13.4288241,0.827025351 9.12705177,2.60264878 5.88717996,5.82680711 C2.62415144,9.07370863 0.827025351,13.3969837 0.827025351,18.0010338 C0.827025351,22.5715894 2.60264878,26.8733617 5.82680711,30.1136471 L5.86030163,30.1471416 C6.02322563,30.3075845 6.02529319,30.569338 5.86526379,30.7318485 C5.70523438,30.895186 5.44348086,30.8968401 5.28055686,30.7368107 L5.23672452,30.6929783 C1.86122055,27.3005203 0,22.7919916 0,18.0010338 C0,13.1753409 1.88355024,8.64365545 5.30371357,5.24085965 C8.69989318,1.86122055 13.2084219,0 17.9993797,0 C22.8246591,0 27.3563445,1.88355024 30.7595539,5.30371357 C34.1387794,8.69989318 36,13.2088354 36,17.9997932 C36,22.8250727 34.1164498,27.3567581 30.6966999,30.7595539 C27.3005203,34.1387794 22.7919916,36 18.0006203,36 Z" id="Shape"></path>
                <path d="M6.24160215,31.2631579 C6.21896337,31.2631579 6.19593426,31.2612781 6.17329547,31.2571424 L3.16428856,30.7420669 C2.95195236,30.705598 2.81065511,30.5108468 2.8481262,30.3063205 C2.8855973,30.1017941 3.08856572,29.963438 3.3005116,30.0017867 L5.82044267,30.4330215 L5.6526034,27.8730584 C5.63894206,27.6659003 5.80248777,27.4876917 6.01755624,27.4741568 C6.23730859,27.4640057 6.41802856,27.6185284 6.43168989,27.8260625 L6.63075508,30.8631284 C6.63856156,30.9781745 6.59055172,31.0902128 6.50116755,31.1672862 C6.42973827,31.2296968 6.33684119,31.2631579 6.24160215,31.2631579 Z" id="Shape"></path>
            </g>
        </g>
    </g>
</svg>