<?xml version="1.0" encoding="UTF-8"?>
<svg width="36px" height="36px" viewBox="0 0 36 36" version="1.1" xmlns="http://www.w3.org/2000/svg" xmlns:xlink="http://www.w3.org/1999/xlink">
    <!-- Generator: Sketch 52.6 (67491) - http://www.bohemiancoding.com/sketch -->
    <title>Group 2</title>
    <desc>Created with Sketch.</desc>
    <g id="Page-1" stroke="none" stroke-width="1" fill="none" fill-rule="evenodd">
        <g id="iPhone-8-(2)" transform="translate(-49.000000, -306.000000)" fill="#FFFFFF" fill-rule="nonzero">
            <g id="Group-2" transform="translate(49.000000, 306.000000)">
                <path d="M31.7858824,0.0211764706 L3.91341176,0.0211764706 C1.76955747,0.0350380312 0.0350380312,1.76955747 0.0211764706,3.91341176 L0.0211764706,31.7858824 C0.0235107244,33.9462324 1.77423822,35.6969599 3.93458824,35.6992941 L31.7858824,35.6992941 C33.9478862,35.6992954 35.7011921,33.9478849 35.7035294,31.7858824 L35.7035294,3.91341176 C35.689559,1.75968553 33.9396539,0.0211311607 31.7858824,0.0211764706 Z M34.4287059,3.93458824 L34.4287059,17.28 L18.4447059,17.28 L18.4447059,1.29176471 L31.7858824,1.29176471 C33.2379459,1.29169779 34.4190014,2.46141514 34.4329412,3.91341176 L34.4287059,3.93458824 Z M3.91341176,1.29176471 L17.1741176,1.29176471 L17.1741176,17.3011765 L1.29176471,17.3011765 L1.29176471,3.91341176 C1.30554414,2.47126227 2.47126227,1.30554414 3.91341176,1.29176471 Z M1.29176471,31.7858824 L1.29176471,18.5505882 L17.1741176,18.5505882 L17.1741176,34.4329412 L3.91341176,34.4329412 C2.46141514,34.4190014 1.29169779,33.2379459 1.29176471,31.7858824 Z M31.7858824,34.4329412 L18.4447059,34.4329412 L18.4447059,18.5505882 L34.4329412,18.5505882 L34.4329412,31.7858824 C34.4329412,33.2478126 33.2478126,34.4329412 31.7858824,34.4329412 Z" id="Shape"></path>
                <path d="M6.40376471,10.3044706 L8.97882353,10.3044706 L8.97882353,12.8795294 C8.97882353,13.2303927 9.26325439,13.5148235 9.61411765,13.5148235 C9.9649809,13.5148235 10.2494118,13.2303927 10.2494118,12.8795294 L10.2494118,10.3044706 L12.8922353,10.3044706 C13.2430985,10.3044706 13.5275294,10.0200397 13.5275294,9.66917647 C13.5275294,9.31831322 13.2430985,9.03388235 12.8922353,9.03388235 L10.2494118,9.03388235 L10.2494118,6.37411765 C10.2494118,6.02325439 9.9649809,5.73882353 9.61411765,5.73882353 C9.26325439,5.73882353 8.97882353,6.02325439 8.97882353,6.37411765 L8.97882353,9.01694118 L6.40376471,9.01694118 C6.05290145,9.01694118 5.76847059,9.30137204 5.76847059,9.65223529 C5.76847059,10.0030985 6.05290145,10.2875294 6.40376471,10.2875294 L6.40376471,10.3044706 Z" id="Shape"></path>
                <path d="M23.2390588,10.3044706 L29.7275294,10.3044706 C30.0783927,10.3044706 30.3628235,10.0200397 30.3628235,9.66917647 C30.3628235,9.31831322 30.0783927,9.03388235 29.7275294,9.03388235 L23.2390588,9.03388235 C22.8881956,9.03388235 22.6037647,9.31831322 22.6037647,9.66917647 C22.6037647,10.0200397 22.8881956,10.3044706 23.2390588,10.3044706 Z" id="Shape"></path>
                <path d="M10.5458824,26.6696471 L12.384,24.8315294 C12.6172452,24.5812153 12.6103628,24.1911447 12.3684326,23.9492145 C12.1265024,23.7072842 11.7364318,23.7004019 11.4861176,23.9336471 L9.648,25.7717647 L7.80988235,23.9336471 C7.55956821,23.7004019 7.16949765,23.7072842 6.92756742,23.9492145 C6.68563719,24.1911447 6.67875485,24.5812153 6.912,24.8315294 L8.75011765,26.6696471 L6.912,28.5077647 C6.74203496,28.6661398 6.67207128,28.9046588 6.72955578,29.1297506 C6.78704027,29.3548424 6.96280466,29.5306068 7.18789645,29.5880913 C7.41298825,29.6455758 7.65150727,29.5756121 7.80988235,29.4056471 L9.648,27.5505882 L11.4861176,29.3887059 C11.7364318,29.621951 12.1265024,29.6150687 12.3684326,29.3731385 C12.6103628,29.1312082 12.6172452,28.7411377 12.384,28.4908235 L10.5458824,26.6696471 Z" id="Shape"></path>
                <path d="M29.7275294,24.2258824 L23.2390588,24.2258824 C22.8881956,24.2258824 22.6037647,24.5103132 22.6037647,24.8611765 C22.6037647,25.2120397 22.8881956,25.4964706 23.2390588,25.4964706 L29.7275294,25.4964706 C30.0783927,25.4964706 30.3628235,25.2120397 30.3628235,24.8611765 C30.3628235,24.5103132 30.0783927,24.2258824 29.7275294,24.2258824 Z" id="Shape"></path>
                <path d="M29.7275294,27.5717647 L23.2390588,27.5717647 C22.8881956,27.5717647 22.6037647,27.8561956 22.6037647,28.2070588 C22.6037647,28.5579221 22.8881956,28.8423529 23.2390588,28.8423529 L29.7275294,28.8423529 C30.0783927,28.8423529 30.3628235,28.5579221 30.3628235,28.2070588 C30.3628235,27.8561956 30.0783927,27.5717647 29.7275294,27.5717647 Z" id="Shape"></path>
            </g>
        </g>
    </g>
</svg>