<?xml version="1.0" encoding="UTF-8"?>
<svg width="38px" height="38px" viewBox="0 0 38 38" version="1.1" xmlns="http://www.w3.org/2000/svg" xmlns:xlink="http://www.w3.org/1999/xlink">
    <!-- Generator: Sketch 52.6 (67491) - http://www.bohemiancoding.com/sketch -->
    <title>Shape</title>
    <desc>Created with Sketch.</desc>
    <g id="Page-1" stroke="none" stroke-width="1" fill="none" fill-rule="evenodd">
        <g id="iPhone-8-(2)" transform="translate(-48.000000, -394.000000)" fill="#FFFFFF" fill-rule="nonzero" stroke="#FFFFFF" stroke-width="0.2">
            <path d="M71.5,398.6 C71.5,396.26 65.695,395 60.25,395 C54.805,395 49,396.26 49,398.6 L49,421.1 C49,423.44 54.805,424.7 60.25,424.7 C61.015,424.7 61.78,424.655 62.5,424.61 L62.5,427.4 C62.5,429.74 68.305,431 73.75,431 C79.195,431 85,429.74 85,427.4 L85,418.4 C85,416.06 79.195,414.8 73.75,414.8 C72.985,414.8 72.265,414.845 71.5,414.89 L71.5,398.6 Z M70.6,403.1 C70.6,404.225 66.64,405.8 60.25,405.8 C53.86,405.8 49.9,404.225 49.9,403.1 L49.9,400.085 C51.745,401.48 56.11,402.2 60.25,402.2 C64.39,402.2 68.755,401.48 70.6,400.085 L70.6,403.1 Z M60.25,406.7 C64.39,406.7 68.755,405.98 70.6,404.585 L70.6,407.6 C70.6,408.725 66.64,410.3 60.25,410.3 C53.86,410.3 49.9,408.725 49.9,407.6 L49.9,404.585 C51.745,405.98 56.11,406.7 60.25,406.7 Z M49.9,409.085 C51.745,410.48 56.11,411.2 60.25,411.2 C64.39,411.2 68.755,410.48 70.6,409.085 L70.6,412.1 C70.6,413.225 66.64,414.8 60.25,414.8 C53.86,414.8 49.9,413.225 49.9,412.1 L49.9,409.085 Z M60.25,395.9 C66.64,395.9 70.6,397.475 70.6,398.6 C70.6,399.725 66.64,401.3 60.25,401.3 C53.86,401.3 49.9,399.725 49.9,398.6 C49.9,397.475 53.86,395.9 60.25,395.9 Z M60.25,423.8 C53.86,423.8 49.9,422.225 49.9,421.1 L49.9,418.085 C51.745,419.48 56.11,420.2 60.25,420.2 C61.015,420.2 61.78,420.155 62.5,420.11 L62.5,423.71 C61.78,423.755 61.015,423.8 60.25,423.8 Z M84.1,422.9 C84.1,424.025 80.14,425.6 73.75,425.6 C67.36,425.6 63.4,424.025 63.4,422.9 L63.4,419.885 C65.245,421.28 69.61,422 73.75,422 C77.89,422 82.255,421.28 84.1,419.885 L84.1,422.9 Z M73.75,430.1 C67.36,430.1 63.4,428.525 63.4,427.4 L63.4,424.52 C63.445,424.52 63.445,424.475 63.49,424.475 C65.38,425.825 69.655,426.545 73.75,426.545 C77.89,426.545 82.255,425.825 84.1,424.43 L84.1,427.4 C84.1,428.525 80.14,430.1 73.75,430.1 Z M84.1,418.4 C84.1,419.525 80.14,421.1 73.75,421.1 C67.36,421.1 63.4,419.525 63.4,418.4 C63.4,417.275 67.36,415.7 73.75,415.7 C80.14,415.7 84.1,417.275 84.1,418.4 Z M62.5,418.4 L62.5,419.21 C61.78,419.255 61.015,419.3 60.25,419.3 C53.86,419.3 49.9,417.725 49.9,416.6 L49.9,413.585 C51.745,414.98 56.11,415.7 60.25,415.7 C64.39,415.7 68.755,414.98 70.6,413.585 L70.6,414.935 C66.28,415.34 62.5,416.51 62.5,418.4 Z" id="Shape"></path>
        </g>
    </g>
</svg>